<svg width="18" height="18" viewBox="0 0 18 18" fill="none" xmlns="http://www.w3.org/2000/svg">
<g clip-path="url(#clip0)">
<path d="M12.3742 0C11.4146 0.0663746 10.293 0.680621 9.63938 1.48049C9.04314 2.20611 8.55264 3.28386 8.74389 4.33122C9.79238 4.36385 10.8757 3.73498 11.5035 2.92161C12.0907 2.16449 12.5351 1.09349 12.3742 0Z" fill="#222330"/>
<path d="M16.1665 6.03876C15.2451 4.88339 13.9503 4.21289 12.7274 4.21289C11.113 4.21289 10.4301 4.98576 9.30853 4.98576C8.15204 4.98576 7.27342 4.21514 5.8773 4.21514C4.50593 4.21514 3.04569 5.05326 2.11982 6.4865C0.818206 8.50474 1.04095 12.2993 3.15032 15.5314C3.90519 16.6879 4.91318 17.9884 6.23167 17.9997C7.40504 18.0109 7.73579 17.2471 9.32541 17.2392C10.915 17.2302 11.2165 18.0098 12.3876 17.9974C13.7073 17.9873 14.7704 16.5462 15.5252 15.3897C16.0664 14.5606 16.2677 14.1432 16.6874 13.2072C13.6353 12.0451 13.1459 7.70487 16.1665 6.03876Z" fill="#222330"/>
</g>
<defs>
<clipPath id="clip0">
<rect width="18" height="18" fill="white"/>
</clipPath>
</defs>
</svg>
