<svg width="160" height="54" viewBox="0 0 160 54" fill="none" xmlns="http://www.w3.org/2000/svg">
<path d="M41.6137 53.7761H33.4497C20.919 53.7761 10.7356 43.5971 10.7356 31.0719V5.5211C10.7356 2.60544 13.1175 0.224609 16.0344 0.224609H59.0118C61.9287 0.224609 64.3106 2.60544 64.3106 5.5211V31.0719C64.3106 43.5971 54.1617 53.7761 41.6137 53.7761Z" fill="#1CD767"/>
<path d="M51.987 39.6981C44.8759 37.0585 37.7303 34.3671 30.6192 31.7275C30.0496 31.5204 29.48 31.3134 28.8932 31.1064C28.8932 29.2086 28.8932 27.2936 28.8932 25.4303C31.7238 24.723 34.1575 22.8425 35.3829 20.0821C36.9536 16.5109 36.2114 12.2323 33.4153 9.43737C30.7055 6.72875 26.5631 5.93514 23.0248 7.34983C19.4002 8.83354 17.1909 12.284 17.1046 16.1831C17.0183 19.0642 21.4714 19.047 21.575 16.1831C21.6958 11.7837 27.0464 9.36836 30.274 12.5773C33.4843 15.7863 31.0852 21.1517 26.6667 21.2725C25.4412 21.307 24.4401 22.2559 24.4401 23.4981C24.4401 26.0514 24.4401 28.6393 24.4401 31.2099C17.8641 33.6425 11.288 36.1268 4.71197 38.5594C3.67637 38.939 2.62351 39.3358 1.58791 39.7153C-1.08738 40.6987 0.0690351 45.0118 2.77885 44.0284C9.88996 41.3888 17.0356 38.6974 24.1467 36.0578C25.0442 35.73 25.9072 35.4022 26.7875 35.0744C33.7605 37.6623 40.7163 40.2847 47.6893 42.8725C48.7249 43.2521 49.7778 43.6489 50.8134 44.0284C53.5059 45.0291 54.6796 40.716 51.987 39.6981Z" fill="#222330"/>
<path d="M85.7993 4.36523C88.2675 4.36523 90.1488 4.79654 91.4606 5.65916C92.7724 6.52178 93.4455 7.93648 93.4455 9.90325C93.4455 11.8873 92.7724 13.3192 91.4433 14.1991C90.1143 15.079 88.1985 15.5275 85.7303 15.5275H84.5566V21.0483H80.8457V4.79654C81.6569 4.64127 82.5199 4.52051 83.4174 4.46875C84.315 4.39974 85.1089 4.36523 85.7993 4.36523ZM86.041 7.53968C85.7648 7.53968 85.5059 7.53968 85.247 7.55693C84.9881 7.57418 84.7637 7.59143 84.5739 7.60869V12.3703H85.7475C87.0248 12.3703 88.0086 12.1978 88.6472 11.8528C89.3031 11.5077 89.631 10.8521 89.631 9.90325C89.631 9.43744 89.5447 9.05789 89.3894 8.7646C89.2168 8.47131 88.9924 8.22977 88.6817 8.04C88.3711 7.85022 87.9913 7.72945 87.5426 7.66044C87.0593 7.57418 86.576 7.53968 86.041 7.53968Z" fill="#222330"/>
<path d="M107.892 14.7685C107.892 15.7519 107.754 16.649 107.461 17.4771C107.167 18.288 106.77 18.9953 106.218 19.5646C105.683 20.1512 105.027 20.5998 104.285 20.9103C103.525 21.2209 102.68 21.3934 101.748 21.3934C100.833 21.3934 99.987 21.2381 99.2276 20.9103C98.4681 20.5998 97.8295 20.1512 97.2944 19.5646C96.7594 18.9781 96.3279 18.288 96.0345 17.4771C95.741 16.6662 95.5857 15.7519 95.5857 14.7685C95.5857 13.7851 95.741 12.888 96.0517 12.0771C96.3624 11.2662 96.7939 10.5761 97.329 10.0068C97.8813 9.43749 98.5199 8.98892 99.2793 8.67838C100.039 8.36784 100.85 8.19531 101.748 8.19531C102.645 8.19531 103.474 8.35058 104.233 8.67838C104.992 8.98892 105.631 9.43749 106.166 10.0068C106.701 10.5761 107.133 11.2662 107.426 12.0771C107.737 12.888 107.892 13.7851 107.892 14.7685ZM104.267 14.7685C104.267 13.6816 104.043 12.819 103.612 12.1806C103.18 11.5595 102.559 11.249 101.748 11.249C100.936 11.249 100.315 11.5595 99.8662 12.1806C99.4174 12.8017 99.193 13.6643 99.193 14.7685C99.193 15.8726 99.4174 16.7352 99.8662 17.3736C100.315 18.0119 100.936 18.3397 101.748 18.3397C102.559 18.3397 103.18 18.0119 103.612 17.3736C104.06 16.7352 104.267 15.8726 104.267 14.7685Z" fill="#222330"/>
<path d="M110.636 14.8017C110.636 13.9046 110.775 13.0419 111.085 12.2483C111.379 11.4547 111.81 10.7474 112.362 10.1608C112.915 9.5742 113.588 9.09114 114.382 8.74609C115.176 8.40104 116.073 8.22852 117.092 8.22852C117.765 8.22852 118.369 8.28027 118.921 8.40104C119.474 8.52181 120.009 8.69433 120.544 8.91861L119.802 11.7308C119.474 11.61 119.111 11.4892 118.714 11.403C118.317 11.2994 117.868 11.2649 117.385 11.2649C116.332 11.2649 115.556 11.5927 115.038 12.2483C114.52 12.9039 114.261 13.7493 114.261 14.8189C114.261 15.9403 114.503 16.8202 114.986 17.4413C115.469 18.0624 116.315 18.3729 117.523 18.3729C117.955 18.3729 118.421 18.3384 118.904 18.2522C119.387 18.1659 119.853 18.0451 120.268 17.8726L120.768 20.771C120.354 20.9435 119.836 21.0988 119.215 21.2196C118.593 21.3403 117.92 21.4093 117.161 21.4093C116.022 21.4093 115.038 21.2368 114.209 20.8918C113.381 20.5467 112.708 20.0809 112.173 19.4943C111.638 18.9078 111.258 18.2177 110.999 17.4068C110.757 16.5959 110.636 15.7333 110.636 14.8017Z" fill="#222330"/>
<path d="M127.275 13.0256C127.62 12.646 127.983 12.2492 128.362 11.8352C128.742 11.4211 129.087 11.0243 129.45 10.6103C129.795 10.2134 130.123 9.8339 130.434 9.45434C130.744 9.09204 131.003 8.7815 131.228 8.50546H135.439C134.593 9.4716 133.782 10.386 132.971 11.2658C132.177 12.1457 131.297 13.0428 130.347 13.9917C130.831 14.423 131.314 14.9406 131.832 15.5272C132.332 16.131 132.833 16.7349 133.316 17.3732C133.799 18.0115 134.231 18.6499 134.628 19.2882C135.025 19.9265 135.353 20.4959 135.629 21.0307H131.556C131.297 20.6166 131.021 20.1681 130.693 19.6505C130.365 19.1502 130.019 18.6499 129.657 18.1496C129.295 17.6492 128.915 17.1662 128.501 16.7003C128.104 16.2345 127.689 15.855 127.292 15.5272V21.0134H123.737V3.15722L127.292 2.58789V13.0256H127.275Z" fill="#222330"/>
<path d="M136.665 14.8892C136.665 13.7851 136.837 12.8017 137.182 11.9736C137.528 11.1455 137.976 10.4381 138.529 9.88605C139.081 9.33397 139.72 8.90266 140.444 8.62662C141.169 8.33333 141.912 8.19531 142.671 8.19531C144.449 8.19531 145.847 8.74739 146.882 9.81704C147.918 10.9039 148.436 12.5084 148.436 14.6132C148.436 14.8202 148.436 15.0445 148.419 15.286C148.401 15.5276 148.384 15.7519 148.367 15.9416H140.324C140.41 16.6662 140.738 17.2528 141.342 17.6841C141.946 18.1154 142.757 18.3225 143.776 18.3225C144.432 18.3225 145.07 18.2707 145.692 18.1499C146.313 18.0292 146.831 17.8912 147.228 17.7014L147.711 20.5825C147.521 20.686 147.262 20.7723 146.952 20.8758C146.641 20.9793 146.278 21.0483 145.899 21.1174C145.502 21.1864 145.087 21.2554 144.656 21.2899C144.207 21.3416 143.758 21.3589 143.327 21.3589C142.205 21.3589 141.221 21.1864 140.393 20.8586C139.564 20.5308 138.874 20.065 138.322 19.4956C137.769 18.909 137.372 18.2362 137.113 17.4426C136.785 16.6662 136.665 15.8209 136.665 14.8892ZM144.984 13.5436C144.967 13.2503 144.915 12.957 144.829 12.6637C144.742 12.3704 144.604 12.1289 144.432 11.9046C144.242 11.6803 144.017 11.5078 143.741 11.3525C143.465 11.2145 143.12 11.1455 142.706 11.1455C142.309 11.1455 141.963 11.2145 141.687 11.3525C141.394 11.4905 141.169 11.663 140.98 11.8873C140.79 12.1116 140.634 12.3704 140.531 12.6637C140.427 12.957 140.358 13.2503 140.306 13.5608H144.984V13.5436Z" fill="#222330"/>
<path d="M151.629 5.41699L155.184 4.84766V8.53967H159.448V11.4898H155.184V15.8892C155.184 16.631 155.323 17.2349 155.581 17.6662C155.84 18.1147 156.375 18.339 157.169 18.339C157.549 18.339 157.946 18.3045 158.343 18.2355C158.74 18.1665 159.12 18.063 159.448 17.9422L159.948 20.7026C159.517 20.8751 159.051 21.0304 158.516 21.1512C157.998 21.2719 157.342 21.3409 156.583 21.3409C155.616 21.3409 154.805 21.2029 154.183 20.9441C153.545 20.6854 153.044 20.3231 152.665 19.8572C152.285 19.3914 152.026 18.8221 151.871 18.1493C151.715 17.4764 151.646 16.7518 151.646 15.9409V5.41699H151.629Z" fill="#222330"/>
<path d="M91.8749 41.6649V44.8566H80.8457V28.3633H84.5566V41.6649H91.8749Z" fill="#222330"/>
<path d="M106.322 38.5771C106.322 39.5605 106.183 40.4576 105.89 41.2857C105.597 42.0966 105.2 42.8039 104.647 43.3732C104.112 43.9598 103.456 44.4084 102.714 44.7189C101.955 45.0295 101.109 45.202 100.177 45.202C99.2622 45.202 98.4164 45.0467 97.657 44.7189C96.8976 44.4084 96.2589 43.9598 95.7239 43.3732C95.1888 42.7867 94.7573 42.0966 94.4639 41.2857C94.1705 40.4748 94.0151 39.5605 94.0151 38.5771C94.0151 37.5937 94.1705 36.6966 94.4812 35.8857C94.7918 35.0748 95.2233 34.3847 95.7584 33.8154C96.3107 33.2461 96.9493 32.7975 97.7088 32.487C98.4682 32.1764 99.2794 32.0039 100.177 32.0039C101.074 32.0039 101.903 32.1592 102.662 32.487C103.422 32.7975 104.06 33.2461 104.596 33.8154C105.131 34.3847 105.562 35.0748 105.855 35.8857C106.166 36.6966 106.322 37.5937 106.322 38.5771ZM102.697 38.5771C102.697 37.4902 102.473 36.6276 102.041 35.9892C101.61 35.3681 100.988 35.0576 100.177 35.0576C99.3657 35.0576 98.7444 35.3681 98.2956 35.9892C97.8469 36.6103 97.6225 37.4729 97.6225 38.5771C97.6225 39.6812 97.8469 40.5439 98.2956 41.1822C98.7444 41.8205 99.3657 42.1483 100.177 42.1483C100.988 42.1483 101.61 41.8205 102.041 41.1822C102.473 40.5439 102.697 39.664 102.697 38.5771Z" fill="#222330"/>
<path d="M121.372 38.5771C121.372 39.5605 121.234 40.4576 120.941 41.2857C120.647 42.0966 120.25 42.8039 119.698 43.3732C119.163 43.9598 118.507 44.4084 117.765 44.7189C117.005 45.0295 116.16 45.202 115.228 45.202C114.313 45.202 113.467 45.0467 112.708 44.7189C111.948 44.4084 111.31 43.9598 110.775 43.3732C110.24 42.7867 109.808 42.0966 109.515 41.2857C109.221 40.4748 109.066 39.5605 109.066 38.5771C109.066 37.5937 109.221 36.6966 109.532 35.8857C109.843 35.0748 110.274 34.3847 110.809 33.8154C111.361 33.2461 112 32.7975 112.76 32.487C113.519 32.1764 114.33 32.0039 115.228 32.0039C116.125 32.0039 116.954 32.1592 117.713 32.487C118.473 32.7975 119.111 33.2461 119.646 33.8154C120.181 34.3847 120.613 35.0748 120.906 35.8857C121.217 36.6966 121.372 37.5937 121.372 38.5771ZM117.748 38.5771C117.748 37.4902 117.523 36.6276 117.092 35.9892C116.66 35.3681 116.039 35.0576 115.228 35.0576C114.417 35.0576 113.795 35.3681 113.346 35.9892C112.898 36.6103 112.673 37.4729 112.673 38.5771C112.673 39.6812 112.898 40.5439 113.346 41.1822C113.795 41.8205 114.417 42.1483 115.228 42.1483C116.039 42.1483 116.66 41.8205 117.092 41.1822C117.523 40.5439 117.748 39.664 117.748 38.5771Z" fill="#222330"/>
<path d="M128.259 36.8342C128.604 36.4546 128.967 36.0578 129.346 35.6438C129.726 35.2297 130.071 34.8329 130.434 34.4189C130.779 34.022 131.107 33.6425 131.418 33.2629C131.728 32.9006 131.987 32.5901 132.212 32.3141H136.423C135.577 33.2802 134.766 34.1946 133.955 35.0744C133.161 35.9543 132.281 36.8514 131.331 37.8003C131.815 38.2316 132.298 38.7492 132.816 39.3358C133.316 39.9396 133.817 40.5435 134.3 41.1818C134.783 41.8201 135.215 42.4585 135.612 43.0968C136.009 43.7352 136.337 44.3045 136.613 44.8393H132.539C132.281 44.4252 132.004 43.9767 131.676 43.4591C131.349 42.9588 131.003 42.4585 130.641 41.9582C130.278 41.4578 129.899 40.9748 129.484 40.509C129.087 40.0431 128.673 39.6636 128.276 39.3358V44.8566H124.721V26.9658L128.276 26.3965V36.8342H128.259Z" fill="#222330"/>
</svg>
